:SAMPLES-PER-SECOND 24
:FULLY-SPECIFIED
:DEGREES
172
root  2.52066 38.8979 27.2247 5.33424 -35.4916 1.362
RightUpLeg  -13.8137 6.03888 -13.1784
RightLeg  28.0666 -6.0572 -3.71616
RightFoot  -13.8704 0.154035 11.223
RightToes  -2.08645e-008 3.77894e-005 6.81332e-007
Spine  -4.86482 0.554481 -0.981573
Spine1  12.9215 -0.58404 2.91335
HEad  -29.3759 19.3967 -5.59474
LeftShoulder1  7.7632 -13.4907 -39.5048
LeftArm  -0.229211 9.99035 -25.9932
LeftForeArm  166.111 -66.8883 -156.669
LeftHand  -0.572526 -1.42955 9.9094
RightShoulder  4.20915 6.79864 34.957
RightArm  6.66102 -20.8585 30.6944
RightForeArm  151.446 74.795 141.483
RightHand  -0.576617 8.16723 -5.29974
LeftUpLeg  -10.1268 -4.09121 -3.09655
LeftLeg  24.1861 11.3035 5.84052
LeftFoot  -14.8931 -0.0441154 -4.29737
LeftToes  1.24767e-006 1.47042e-008 1.32732e-009
173
root  2.27522 40.1648 27.2006 6.04298 -44.9222 0.00535583
RightUpLeg  -14.849 8.10767 -12.5842
RightLeg  22.7777 0.171148 -0.144225
RightFoot  -4.14104 -0.717344 10.3162
RightToes  -2.08645e-008 3.77894e-005 6.81332e-007
Spine  -5.23489 0.924559 1.27109
Spine1  13.0824 -0.1297 2.21868
HEad  -27.9276 26.034 -9.20574
LeftShoulder1  7.50899 -13.2236 -38.7526
LeftArm  -2.80987 16.8624 -31.7188
LeftForeArm  162.28 -65.9935 -157.161
LeftHand  -0.554586 -1.4328 9.60393
RightShoulder  4.24738 6.87761 35.0128
RightArm  8.59028 -23.1512 32.378
RightForeArm  145.022 75.5109 138.243
RightHand  -0.389605 8.17212 -3.70729
LeftUpLeg  -7.10427 3.72109 -1.29902
LeftLeg  19.0553 11.3287 4.2377
LeftFoot  -7.31985 0.334183 -8.07442
LeftToes  1.24767e-006 1.47042e-008 1.32732e-009
174
root  1.89337 41.6128 26.9376 6.24373 -50.6115 -0.0895844
RightUpLeg  -14.5778 4.08855 -11.6049
RightLeg  17.1287 4.6787 1.35698
RightFoot  5.75522 -2.20446 14.807
RightToes  -2.08645e-008 3.77894e-005 6.81332e-007
Spine  -5.20605 -0.149747 -1.16867
Spine1  12.4626 -1.91778 5.38492
HEad  -25.2597 32.3846 -11.1432
LeftShoulder1  7.40509 -13.1422 -38.3654
LeftArm  -3.41316 22.0773 -35.157
LeftForeArm  158.631 -65.1595 -157.581
LeftHand  -0.518456 -1.07662 9.44008
RightShoulder  4.2162 6.89345 34.6549
RightArm  11.6349 -24.4284 31.8111
RightForeArm  140.125 76.1517 135.246
RightHand  -0.354072 7.85474 -3.46491
LeftUpLeg  -6.2576 11.4092 0.982259
LeftLeg  16.3783 8.09342 1.11838
LeftFoot  4.95907 1.49194 -10.5844
LeftToes  1.24767e-006 1.47042e-008 1.32732e-009
175
root  1.53731 42.5175 26.5304 7.27524 -53.4945 -1.02586
RightUpLeg  -14.1004 -1.20615 -9.15849
RightLeg  14.5714 2.60182 0.232345
RightFoot  10.2731 -2.83063 15.143
RightToes  -2.08645e-008 3.77894e-005 6.81332e-007
Spine  -4.22636 -1.57454 -2.15166
Spine1  10.9758 -3.71603 7.41643
HEad  -23.8083 36.2391 -11.3815
LeftShoulder1  7.22001 -13.0474 -37.5357
LeftArm  -1.3355 23.2985 -34.0951
LeftForeArm  158.617 -64.7422 -157.977
LeftHand  -0.375605 -1.3495 6.61651
RightShoulder  4.28057 6.96909 34.9734
RightArm  13.9595 -26.7177 29.1655
RightForeArm  145.801 74.9359 140.026
RightHand  -0.286602 8.08512 -2.84147
LeftUpLeg  -7.94871 16.5126 3.2755
LeftLeg  17.1192 1.69664 0.165033
LeftFoot  14.1111 2.55715 -11.6786
LeftToes  1.24767e-006 1.47042e-008 1.32732e-009
176
root  1.29357 42.7863 26.1008 8.98904 -56.8438 -3.51837
RightUpLeg  -14.616 -2.3799 -6.49321
RightLeg  17.0049 -3.76128 -1.5823
RightFoot  12.6956 -2.39496 11.6289
RightToes  -2.08645e-008 3.77894e-005 6.81332e-007
Spine  -1.64508 -1.87271 -0.722195
Spine1  9.23521 -3.9306 7.44468
HEad  -25.306 38.1518 -12.1795
LeftShoulder1  6.78143 -12.6763 -35.8735
LeftArm  2.32475 20.5142 -31.7977
LeftForeArm  161.806 -64.8215 -158.246
LeftHand  -0.27293 -2.32743 4.30958
RightShoulder  4.1257 6.8589 33.924
RightArm  15.2771 -29.4376 27.0859
RightForeArm  151.206 73.0268 145.513
RightHand  -0.19433 7.83636 -2.07402
LeftUpLeg  -8.73728 14.2368 6.78426
LeftLeg  16.6294 3.64398 1.28342
LeftFoot  14.4528 2.21617 -10.049
LeftToes  1.24767e-006 1.47042e-008 1.32732e-009
177
root  0.929813 42.4047 25.628 9.82782 -60.7711 -4.18866
RightUpLeg  -14.973 -2.23284 -5.60164
RightLeg  19.3668 -4.42794 -1.92743
RightFoot  11.4853 -2.06077 10.6124
RightToes  -2.08645e-008 3.77894e-005 6.81332e-007
Spine  -0.872972 -1.6483 -1.82986
Spine1  8.97011 -3.70404 7.58283
HEad  -28.0462 39.5748 -13.5159
LeftShoulder1  6.18525 -12.0316 -33.8122
LeftArm  5.78412 15.5171 -29.6821
LeftForeArm  164.691 -64.9473 -158.44
LeftHand  -0.247384 -2.7821 3.73715
RightShoulder  3.84388 6.65914 31.9343
RightArm  15.7728 -31.1314 25.6624
RightForeArm  153.127 71.7923 148.185
RightHand  -0.133677 7.5046 -1.56874
LeftUpLeg  -9.0613 7.75396 9.62295
LeftLeg  13.0119 10.5171 2.84438
LeftFoot  12.5632 1.132 -5.70393
LeftToes  1.24767e-006 1.47042e-008 1.32732e-009
178
root  0.44699 41.2909 25.1539 10.484 -63.6465 -3.51703
RightUpLeg  -14.559 -1.32058 -5.77462
RightLeg  19.5423 -0.565524 -0.436977
RightFoot  2.28023 -1.17484 9.88146
RightToes  -2.08645e-008 3.77894e-005 6.81332e-007
Spine  -2.05595 -1.6917 -4.42501
Spine1  9.03288 -3.9672 8.89237
HEad  -30.107 41.0573 -14.4042
LeftShoulder1  5.93383 -11.7204 -32.9818
LeftArm  6.73908 10.0133 -26.1309
LeftForeArm  164.138 -64.7465 -158.567
LeftHand  -0.208132 -3.12481 3.07974
RightShoulder  3.68411 6.54341 30.7693
RightArm  15.4183 -32.0554 23.7302
RightForeArm  154.075 71.1343 149.474
RightHand  -0.26696 7.25581 -2.80559
LeftUpLeg  -11.4656 0.844936 12.0424
LeftLeg  13.2472 11.7956 4.45216
LeftFoot  10.0642 1.3912 -7.6642
LeftToes  1.24767e-006 1.47042e-008 1.32732e-009
179
root  0.18487 39.7351 24.7771 11.8233 -66.4011 -4.60188
RightUpLeg  -15.4399 0.156278 -4.87012
RightLeg  22.5226 0.592228 0.0637221
RightFoot  -10.0186 -0.155375 5.6087
RightToes  -2.08645e-008 3.77894e-005 6.81332e-007
Spine  -1.17654 -1.55906 -3.50168
Spine1  7.97969 -3.52185 7.98324
HEad  -32.8139 42.5199 -15.7337
LeftShoulder1  6.10956 -11.8641 -33.753
LeftArm  4.13211 3.48979 -21.5062
LeftForeArm  163.072 -65.286 -157.952
LeftHand  -0.269322 -3.2354 3.86188
RightShoulder  3.76203 6.58123 31.4093
RightArm  13.7418 -30.4046 21.6695
RightForeArm  150.85 72.4413 146.682
RightHand  -0.374262 7.59051 -3.70414
LeftUpLeg  -14.0606 -5.09821 15.7272
LeftLeg  20.6651 10.3429 4.76666
LeftFoot  1.51936 1.76303 -15.907
LeftToes  1.24767e-006 1.47042e-008 1.32732e-009
180
root  0.131335 38.407 24.5164 14.631 -71.4816 -8.6059
RightUpLeg  -18.6533 4.26429 -3.21651
RightLeg  29.9963 -0.922168 -0.812449
RightFoot  -17.5389 -0.00957424 2.01636
RightToes  -2.08645e-008 3.77894e-005 6.81332e-007
Spine  0.233698 -0.338965 -0.400659
Spine1  9.14686 -1.64425 5.09965
HEad  -37.5576 43.4122 -19.0306
LeftShoulder1  6.40857 -12.0972 -35.0587
LeftArm  -1.08114 -2.29734 -19.8588
LeftForeArm  164.195 -67.3697 -155.918
LeftHand  -0.417913 -2.50903 6.35764
RightShoulder  3.79202 6.52886 31.9091
RightArm  9.90792 -25.356 22.394
RightForeArm  140.695 76.2313 135.073
RightHand  -0.566512 7.18283 -5.5748
LeftUpLeg  -13.2231 -2.90747 17.7352
LeftLeg  27.3516 8.16754 4.90204
LeftFoot  -8.81358 0.524854 -21.1989
LeftToes  1.24767e-006 1.47042e-008 1.32732e-009
181
root  -0.0346402 38.0068 24.3515 13.2202 -75.2219 -8.75594
RightUpLeg  -19.3772 8.15034 -3.3041
RightLeg  34.0868 -1.58858 -1.3975
RightFoot  -19.2182 -0.00797071 1.769
RightToes  -2.08645e-008 3.77894e-005 6.81332e-007
Spine  0.586537 0.215866 -1.09748
Spine1  11.5321 -1.0132 4.27911
HEad  -40.6225 44.5016 -21.554
LeftShoulder1  6.83696 -12.4883 -36.6912
LeftArm  -5.76034 -1.8126 -22.7768
LeftForeArm  164.93 -68.7256 -154.412
LeftHand  -0.476012 -2.05937 7.61161
RightShoulder  3.86181 6.57632 32.424
RightArm  5.69481 -21.7274 25.0442
RightForeArm  129.783 78.8531 120.526
RightHand  -0.605473 7.72718 -5.71174
LeftUpLeg  -11.097 -0.221485 17.0283
LeftLeg  30.0098 9.39465 6.16626
LeftFoot  -11.6618 0.011482 -21.8761
LeftToes  1.24767e-006 1.47042e-008 1.32732e-009
182
root  -0.276099 38.7188 24.4767 9.30621 -73.1077 -5.05292
RightUpLeg  -16.301 6.11746 -4.26668
RightLeg  30.0655 -0.936848 -0.82063
RightFoot  -16.2782 0.0116961 2.72466
RightToes  -2.08645e-008 3.77894e-005 6.81332e-007
Spine  -0.587813 -1.38108 -2.31111
Spine1  12.0539 -2.89057 5.02468
HEad  -38.3301 46.2943 -20.53
LeftShoulder1  7.19149 -12.8235 -37.946
LeftArm  -6.80281 4.78272 -28.7432
LeftForeArm  164.044 -67.8863 -155.305
LeftHand  -0.47316 -1.62124 8.01205
RightShoulder  3.97923 6.65701 33.2788
RightArm  2.95837 -24.5384 28.0658
RightForeArm  134.862 78.3351 124.767
RightHand  -0.421704 7.76652 -4.07995
LeftUpLeg  -12.4672 -0.898885 15.4361
LeftLeg  30.6645 11.4672 7.5902
LeftFoot  -3.9651 1.1888 -18.4575
LeftToes  1.24767e-006 1.47042e-008 1.32732e-009
183
root  -0.49368 39.956 24.7911 9.5144 -71.0511 -3.73912
RightUpLeg  -13.3882 3.01211 -5.17708
RightLeg  21.9117 1.41046 0.437145
RightFoot  -9.2773 -0.141562 4.52004
RightToes  -2.08645e-008 3.77894e-005 6.81332e-007
Spine  -3.73501 -1.9518 -1.64322
Spine1  11.843 -3.32452 4.72132
HEad  -33.3481 47.1255 -18.0604
LeftShoulder1  7.21242 -12.8402 -38.0234
LeftArm  -4.10715 12.6082 -34.5719
LeftForeArm  164.056 -66.3543 -157
LeftHand  -0.504149 -1.70171 8.42288
RightShoulder  3.93029 6.49421 33.4269
RightArm  1.87607 -31.3246 30.3329
RightForeArm  144.308 75.7138 137.464
RightHand  -0.631085 7.28192 -6.13164
LeftUpLeg  -14.9345 0.381664 14.4498
LeftLeg  28.917 10.3843 6.48203
LeftFoot  6.2745 1.98663 -13.1433
LeftToes  1.24767e-006 1.47042e-008 1.32732e-009
184
root  -0.596447 41.0185 25.1105 9.32378 -72.4774 -1.9688
RightUpLeg  -12.3364 1.56279 -6.53861
RightLeg  15.3121 5.02839 0.813556
RightFoot  -2.01064 -0.718362 8.61851
RightToes  -2.08645e-008 3.77894e-005 6.81332e-007
Spine  -5.83083 -0.61278 -1.40284
Spine1  10.9379 -1.59987 3.79185
HEad  -31.0226 46.9469 -17.4256
LeftShoulder1  7.1776 -12.8555 -37.7784
LeftArm  -0.713791 20.089 -36.7219
LeftForeArm  166.531 -63.9712 -159.505
LeftHand  -0.401669 -2.51326 6.11576
RightShoulder  3.99708 6.56425 33.8145
RightArm  3.02396 -36.5955 29.3146
RightForeArm  148.257 73.0181 145.043
RightHand  -0.752414 7.25375 -7.24519
LeftUpLeg  -15.0273 4.01292 13.2411
LeftLeg  24.5378 5.81766 3.23159
LeftFoot  9.65838 2.13995 -11.833
LeftToes  1.24767e-006 1.47042e-008 1.32732e-009
185
root  -0.613456 41.5611 25.3526 6.27339 -74.8644 1.22722
RightUpLeg  -11.9507 1.49843 -7.92016
RightLeg  13.892 4.61826 0.137825
RightFoot  1.49133 -1.26272 11.3412
RightToes  -2.08645e-008 3.77894e-005 6.81332e-007
Spine  -5.73649 0.667805 -1.81989
Spine1  10.1139 0.109406 2.64945
HEad  -32.1779 46.948 -18.6248
LeftShoulder1  7.01344 -12.7637 -37.0424
LeftArm  2.31684 25.7353 -34.9276
LeftForeArm  169.133 -60.9839 -162.078
LeftHand  -0.233592 -3.10301 3.42977
RightShoulder  4.12505 6.84853 33.9588
RightArm  6.4322 -38.0297 27.4234
RightForeArm  149.745 71.8427 147.584
RightHand  -0.750191 6.48456 -7.64383
LeftUpLeg  -13.1275 6.04597 12.2207
LeftLeg  19.9144 3.28076 1.62783
LeftFoot  9.31807 2.44701 -13.6785
LeftToes  1.24767e-006 1.47042e-008 1.32732e-009
